<?xml version="1.0" encoding="utf-8"?>
<!-- Generator: Adobe Illustrator 19.0.1, SVG Export Plug-In . SVG Version: 6.00 Build 0)  -->
<!DOCTYPE svg PUBLIC "-//W3C//DTD SVG 1.1//EN" "http://www.w3.org/Graphics/SVG/1.1/DTD/svg11.dtd">
<svg version="1.1"
	 id="svg2" xmlns:cc="http://creativecommons.org/ns#" xmlns:inkscape="http://www.inkscape.org/namespaces/inkscape" xmlns:rdf="http://www.w3.org/1999/02/22-rdf-syntax-ns#" xmlns:svg="http://www.w3.org/2000/svg" xmlns:dc="http://purl.org/dc/elements/1.1/"
	 xmlns="http://www.w3.org/2000/svg" xmlns:xlink="http://www.w3.org/1999/xlink" x="0px" y="0px" viewBox="275 -279.2 590.3 599.2"
	 style="enable-background:new 275 -279.2 590.3 599.2;" xml:space="preserve">
<style type="text/css">
	.st0{fill:#EF6518;}
	.st1{fill:none;stroke:#EF6518;stroke-width:38;stroke-miterlimit:10;}
</style>
<g>
	<g id="g16">
		<path id="path22" inkscape:connector-curvature="0" class="st0" d="M451.7-59.6c-0.5-0.1-1-0.5-1.5-0.8c-1.3-1.3-1.3-3.3,0-4.5
			h64.8c1.2,1.3,1.2,3.3,0,4.5c-0.5,0.5-1.1,0.8-1.7,0.9l-11.8,1.9c-3.9,0.8-6.8,4.1-6.8,8.2V60.5c0,9.7,1.8,21.7,4.5,30.6
			c2.8,8.9,10.9,18.5,20.7,22.6c9.4,3.9,21.3,6.3,34.3,6.3c13.7,0,26.2-2.6,35.7-7c9.5-4.2,16.9-12.5,20-22.5c2.7-8.7,4.3-19,4.3-30
			c0,0,0-97.3,0-127.7c0-27.6,13.6-36.8,34.9-36.8c21.3,0,38.3,0,38.3,0c1.4,1.4,1.4,3.7,0,5.1c-0.5,0.5-1.2,0.9-1.9,1L672.3-96
			c-7.9,1.4-10,4.5-10,12.8l-0.1,14.5V62.6c0,8.4-0.8,16.6-2.1,24.1c-4.3,24.5-23.1,44.2-47.2,49.8c-14.5,3.5-31,5.4-48.5,5.4
			c-17.5,0-34.1-2-48.6-5.4c-23.3-5.7-41.6-24.7-46.3-48.3c-1.7-8.4-2.6-17.6-2.6-27.1l0-110.4c0-4-2.8-7.3-6.5-8.2"/>
	</g>
	<circle class="st1" cx="570.2" cy="20.4" r="268.5"/>
</g>
</svg>
